<svg xmlns="http://www.w3.org/2000/svg" xmlns:xlink="http://www.w3.org/1999/xlink" width="500" zoomAndPan="magnify" viewBox="0 0 375 374.999991" height="500" preserveAspectRatio="xMidYMid meet" version="1.0"><defs><g/><clipPath id="a7e678c7f8"><path d="M 194.429688 95.089844 L 264.929688 95.089844 L 264.929688 248.839844 L 194.429688 248.839844 Z M 194.429688 95.089844 " clip-rule="nonzero"/></clipPath><clipPath id="52d187ce89"><path d="M 184.652344 78.214844 L 190.652344 78.214844 L 190.652344 265.714844 L 184.652344 265.714844 Z M 184.652344 78.214844 " clip-rule="nonzero"/></clipPath><clipPath id="4183905564"><path d="M 64.867188 95.089844 L 190.867188 95.089844 L 190.867188 253.339844 L 64.867188 253.339844 Z M 64.867188 95.089844 " clip-rule="nonzero"/></clipPath></defs><rect x="-37.5" width="450" fill="#ffffff" y="-37.499999" height="449.999989" fill-opacity="1"/><rect x="-37.5" width="450" fill="#000000" y="-37.499999" height="449.999989" fill-opacity="1"/><g clip-path="url(#a7e678c7f8)"><path fill="#ffde59" d="M 261.585938 248.839844 L 237.125 248.839844 C 235.191406 248.839844 233.632812 247.273438 233.632812 245.34375 L 233.632812 182.449219 L 170.734375 182.449219 L 170.734375 245.34375 C 170.734375 247.273438 169.171875 248.839844 167.238281 248.839844 L 142.777344 248.839844 C 140.847656 248.839844 139.285156 247.273438 139.285156 245.34375 L 139.285156 98.585938 C 139.285156 96.65625 140.847656 95.089844 142.777344 95.089844 L 167.238281 95.089844 C 169.171875 95.089844 170.734375 96.65625 170.734375 98.585938 L 170.734375 154.492188 L 233.632812 154.492188 L 233.632812 98.585938 C 233.632812 96.65625 235.191406 95.089844 237.125 95.089844 L 261.585938 95.089844 C 263.519531 95.089844 265.078125 96.65625 265.078125 98.585938 L 265.078125 245.34375 C 265.078125 247.273438 263.519531 248.839844 261.585938 248.839844 Z M 261.585938 248.839844 " fill-opacity="1" fill-rule="nonzero"/></g><g clip-path="url(#52d187ce89)"><path fill="#ffffff" d="M 184.652344 78.214844 L 190.652344 78.214844 L 190.652344 265.714844 L 184.652344 265.714844 Z M 184.652344 78.214844 " fill-opacity="1" fill-rule="nonzero"/></g><g clip-path="url(#4183905564)"><path fill="#ffffff" d="M 140.320312 253.046875 L 115.191406 253.046875 C 113.207031 253.046875 111.601562 251.4375 111.601562 249.457031 L 111.601562 120.21875 L 68.523438 120.21875 C 66.539062 120.21875 64.933594 118.609375 64.933594 116.628906 L 64.933594 98.679688 C 64.933594 96.699219 66.539062 95.089844 68.523438 95.089844 L 186.992188 95.089844 C 188.976562 95.089844 190.582031 96.699219 190.582031 98.679688 L 190.582031 116.628906 C 190.582031 118.609375 188.976562 120.21875 186.992188 120.21875 L 143.910156 120.21875 L 143.910156 249.457031 C 143.910156 251.4375 142.308594 253.046875 140.320312 253.046875 Z M 140.320312 253.046875 " fill-opacity="1" fill-rule="nonzero"/></g><g fill="#ffde59" fill-opacity="1"><g transform="translate(109.042373, 290.999513)"><g><path d="M 9.53125 0 L 5.984375 0 L 5.984375 -15.625 L 0.25 -15.625 L 0.25 -18.796875 L 15.25 -18.796875 L 15.25 -15.625 L 9.53125 -15.625 Z M 9.53125 0 "/></g></g></g><g fill="#ffde59" fill-opacity="1"><g transform="translate(124.561076, 290.999513)"><g><path d="M 5.5 0.265625 C 4.195312 0.265625 3.113281 -0.0820312 2.25 -0.78125 C 1.394531 -1.476562 0.96875 -2.484375 0.96875 -3.796875 C 0.96875 -4.535156 1.109375 -5.160156 1.390625 -5.671875 C 1.679688 -6.191406 2.0625 -6.617188 2.53125 -6.953125 C 2.976562 -7.265625 3.484375 -7.507812 4.046875 -7.6875 C 4.617188 -7.863281 5.191406 -8.007812 5.765625 -8.125 L 9.875 -8.890625 C 9.84375 -9.742188 9.625 -10.394531 9.21875 -10.84375 C 8.800781 -11.28125 8.1875 -11.5 7.375 -11.5 C 6.75 -11.5 6.191406 -11.3125 5.703125 -10.9375 C 5.222656 -10.570312 4.914062 -10.0625 4.78125 -9.40625 L 1.484375 -9.40625 C 1.640625 -10.488281 2.015625 -11.375 2.609375 -12.0625 C 3.203125 -12.757812 3.921875 -13.273438 4.765625 -13.609375 C 5.609375 -13.953125 6.484375 -14.125 7.390625 -14.125 C 8.191406 -14.125 8.960938 -14.003906 9.703125 -13.765625 C 10.441406 -13.535156 11.066406 -13.1875 11.578125 -12.71875 C 12.117188 -12.238281 12.503906 -11.691406 12.734375 -11.078125 C 12.960938 -10.460938 13.097656 -9.820312 13.140625 -9.15625 C 13.179688 -8.488281 13.203125 -7.832031 13.203125 -7.1875 L 13.203125 0 L 9.875 0 L 9.875 -1.875 C 9.53125 -1.269531 9.113281 -0.8125 8.625 -0.5 C 8.195312 -0.21875 7.710938 -0.0195312 7.171875 0.09375 C 6.640625 0.207031 6.082031 0.265625 5.5 0.265625 Z M 6.3125 -2.34375 C 6.96875 -2.34375 7.554688 -2.472656 8.078125 -2.734375 C 8.804688 -3.097656 9.296875 -3.582031 9.546875 -4.1875 C 9.804688 -4.789062 9.941406 -5.546875 9.953125 -6.453125 L 6.65625 -5.796875 C 6.175781 -5.710938 5.785156 -5.601562 5.484375 -5.46875 C 5.179688 -5.332031 4.929688 -5.175781 4.734375 -5 C 4.597656 -4.875 4.488281 -4.71875 4.40625 -4.53125 C 4.320312 -4.351562 4.28125 -4.148438 4.28125 -3.921875 C 4.28125 -3.410156 4.472656 -3.019531 4.859375 -2.75 C 5.253906 -2.476562 5.738281 -2.34375 6.3125 -2.34375 Z M 6.3125 -2.34375 "/></g></g></g><g fill="#ffde59" fill-opacity="1"><g transform="translate(139.119105, 290.999513)"><g><path d="M 4.828125 0 L 1.5 0 L 1.5 -13.828125 L 4.828125 -13.828125 L 4.828125 -12.078125 C 5.390625 -12.847656 5.972656 -13.378906 6.578125 -13.671875 C 7.179688 -13.972656 7.851562 -14.125 8.59375 -14.125 C 9.863281 -14.125 10.820312 -13.894531 11.46875 -13.4375 C 12.113281 -12.988281 12.59375 -12.441406 12.90625 -11.796875 C 13.1875 -11.191406 13.351562 -10.570312 13.40625 -9.9375 C 13.457031 -9.3125 13.484375 -8.648438 13.484375 -7.953125 L 13.484375 0 L 10.171875 0 L 10.171875 -8.015625 C 10.171875 -8.710938 10.113281 -9.28125 10 -9.71875 C 9.882812 -10.15625 9.710938 -10.503906 9.484375 -10.765625 C 9.085938 -11.179688 8.503906 -11.390625 7.734375 -11.390625 C 6.796875 -11.390625 6.097656 -11.109375 5.640625 -10.546875 C 5.359375 -10.210938 5.148438 -9.773438 5.015625 -9.234375 C 4.890625 -8.691406 4.828125 -7.960938 4.828125 -7.046875 Z M 4.828125 0 "/></g></g></g><g fill="#ffde59" fill-opacity="1"><g transform="translate(154.021989, 290.999513)"><g><path d="M 3.171875 -15.34375 C 2.617188 -15.34375 2.140625 -15.515625 1.734375 -15.859375 C 1.335938 -16.210938 1.140625 -16.675781 1.140625 -17.25 C 1.140625 -17.8125 1.335938 -18.265625 1.734375 -18.609375 C 2.140625 -18.960938 2.617188 -19.140625 3.171875 -19.140625 C 3.734375 -19.140625 4.210938 -18.960938 4.609375 -18.609375 C 5.015625 -18.265625 5.21875 -17.8125 5.21875 -17.25 C 5.21875 -16.675781 5.015625 -16.210938 4.609375 -15.859375 C 4.210938 -15.515625 3.734375 -15.34375 3.171875 -15.34375 Z M 4.828125 0 L 1.5 0 L 1.5 -13.828125 L 4.828125 -13.828125 Z M 4.828125 0 "/></g></g></g><g fill="#ffde59" fill-opacity="1"><g transform="translate(160.37727, 290.999513)"><g><path d="M 4.828125 0 L 1.5 0 L 1.5 -13.828125 L 4.828125 -13.828125 L 4.828125 -12.078125 C 5.367188 -12.828125 5.957031 -13.351562 6.59375 -13.65625 C 7.226562 -13.96875 7.894531 -14.125 8.59375 -14.125 C 9.5 -14.125 10.273438 -13.9375 10.921875 -13.5625 C 11.578125 -13.195312 12.007812 -12.644531 12.21875 -11.90625 C 12.675781 -12.675781 13.242188 -13.238281 13.921875 -13.59375 C 14.597656 -13.945312 15.382812 -14.125 16.28125 -14.125 C 17.84375 -14.125 18.988281 -13.664062 19.71875 -12.75 C 20.457031 -11.84375 20.828125 -10.613281 20.828125 -9.0625 L 20.828125 0 L 17.5 0 L 17.5 -8.65625 C 17.5 -9.601562 17.3125 -10.296875 16.9375 -10.734375 C 16.570312 -11.171875 16.035156 -11.390625 15.328125 -11.390625 C 14.960938 -11.390625 14.640625 -11.328125 14.359375 -11.203125 C 14.085938 -11.078125 13.859375 -10.914062 13.671875 -10.71875 C 13.359375 -10.351562 13.140625 -9.894531 13.015625 -9.34375 C 12.898438 -8.800781 12.84375 -8.125 12.84375 -7.3125 L 12.84375 0 L 9.515625 0 L 9.515625 -8.65625 C 9.515625 -9.582031 9.320312 -10.269531 8.9375 -10.71875 C 8.550781 -11.164062 8.007812 -11.390625 7.3125 -11.390625 C 6.625 -11.390625 6.066406 -11.148438 5.640625 -10.671875 C 5.378906 -10.359375 5.175781 -9.941406 5.03125 -9.421875 C 4.894531 -8.910156 4.828125 -8.207031 4.828125 -7.3125 Z M 4.828125 0 "/></g></g></g><g fill="#ffde59" fill-opacity="1"><g transform="translate(189.222354, 290.999513)"><g><path d="M 5.21875 0 L 1.671875 0 L 1.671875 -18.796875 L 5.21875 -18.796875 L 5.21875 -11.015625 L 13.28125 -11.015625 L 13.28125 -18.796875 L 16.828125 -18.796875 L 16.828125 0 L 13.28125 0 L 13.28125 -7.828125 L 5.21875 -7.828125 Z M 5.21875 0 "/></g></g></g><g fill="#ffde59" fill-opacity="1"><g transform="translate(207.746275, 290.999513)"><g><path d="M 5.5 0.265625 C 4.195312 0.265625 3.113281 -0.0820312 2.25 -0.78125 C 1.394531 -1.476562 0.96875 -2.484375 0.96875 -3.796875 C 0.96875 -4.535156 1.109375 -5.160156 1.390625 -5.671875 C 1.679688 -6.191406 2.0625 -6.617188 2.53125 -6.953125 C 2.976562 -7.265625 3.484375 -7.507812 4.046875 -7.6875 C 4.617188 -7.863281 5.191406 -8.007812 5.765625 -8.125 L 9.875 -8.890625 C 9.84375 -9.742188 9.625 -10.394531 9.21875 -10.84375 C 8.800781 -11.28125 8.1875 -11.5 7.375 -11.5 C 6.75 -11.5 6.191406 -11.3125 5.703125 -10.9375 C 5.222656 -10.570312 4.914062 -10.0625 4.78125 -9.40625 L 1.484375 -9.40625 C 1.640625 -10.488281 2.015625 -11.375 2.609375 -12.0625 C 3.203125 -12.757812 3.921875 -13.273438 4.765625 -13.609375 C 5.609375 -13.953125 6.484375 -14.125 7.390625 -14.125 C 8.191406 -14.125 8.960938 -14.003906 9.703125 -13.765625 C 10.441406 -13.535156 11.066406 -13.1875 11.578125 -12.71875 C 12.117188 -12.238281 12.503906 -11.691406 12.734375 -11.078125 C 12.960938 -10.460938 13.097656 -9.820312 13.140625 -9.15625 C 13.179688 -8.488281 13.203125 -7.832031 13.203125 -7.1875 L 13.203125 0 L 9.875 0 L 9.875 -1.875 C 9.53125 -1.269531 9.113281 -0.8125 8.625 -0.5 C 8.195312 -0.21875 7.710938 -0.0195312 7.171875 0.09375 C 6.640625 0.207031 6.082031 0.265625 5.5 0.265625 Z M 6.3125 -2.34375 C 6.96875 -2.34375 7.554688 -2.472656 8.078125 -2.734375 C 8.804688 -3.097656 9.296875 -3.582031 9.546875 -4.1875 C 9.804688 -4.789062 9.941406 -5.546875 9.953125 -6.453125 L 6.65625 -5.796875 C 6.175781 -5.710938 5.785156 -5.601562 5.484375 -5.46875 C 5.179688 -5.332031 4.929688 -5.175781 4.734375 -5 C 4.597656 -4.875 4.488281 -4.71875 4.40625 -4.53125 C 4.320312 -4.351562 4.28125 -4.148438 4.28125 -3.921875 C 4.28125 -3.410156 4.472656 -3.019531 4.859375 -2.75 C 5.253906 -2.476562 5.738281 -2.34375 6.3125 -2.34375 Z M 6.3125 -2.34375 "/></g></g></g><g fill="#ffde59" fill-opacity="1"><g transform="translate(222.304303, 290.999513)"><g><path d="M 7.484375 0.265625 C 6.429688 0.265625 5.429688 0.0976562 4.484375 -0.234375 C 3.535156 -0.566406 2.734375 -1.097656 2.078125 -1.828125 C 1.429688 -2.566406 1.023438 -3.507812 0.859375 -4.65625 L 4.140625 -4.65625 C 4.347656 -3.90625 4.738281 -3.332031 5.3125 -2.9375 C 5.894531 -2.539062 6.613281 -2.34375 7.46875 -2.34375 C 8.175781 -2.34375 8.757812 -2.476562 9.21875 -2.75 C 9.675781 -3.03125 9.90625 -3.425781 9.90625 -3.9375 C 9.90625 -4.351562 9.753906 -4.675781 9.453125 -4.90625 C 9.148438 -5.144531 8.75 -5.332031 8.25 -5.46875 C 7.757812 -5.601562 7.21875 -5.726562 6.625 -5.84375 C 6.03125 -5.957031 5.425781 -6.09375 4.8125 -6.25 C 4.195312 -6.414062 3.632812 -6.644531 3.125 -6.9375 C 2.613281 -7.226562 2.203125 -7.613281 1.890625 -8.09375 C 1.578125 -8.582031 1.421875 -9.210938 1.421875 -9.984375 C 1.421875 -10.953125 1.664062 -11.738281 2.15625 -12.34375 C 2.65625 -12.945312 3.3125 -13.394531 4.125 -13.6875 C 4.9375 -13.976562 5.820312 -14.125 6.78125 -14.125 C 8.382812 -14.125 9.726562 -13.710938 10.8125 -12.890625 C 11.894531 -12.078125 12.5625 -10.914062 12.8125 -9.40625 L 9.6875 -9.40625 C 9.488281 -10.164062 9.117188 -10.703125 8.578125 -11.015625 C 8.035156 -11.335938 7.425781 -11.5 6.75 -11.5 C 6.09375 -11.5 5.570312 -11.375 5.1875 -11.125 C 4.800781 -10.875 4.609375 -10.535156 4.609375 -10.109375 C 4.609375 -9.722656 4.753906 -9.421875 5.046875 -9.203125 C 5.347656 -8.992188 5.738281 -8.832031 6.21875 -8.71875 C 6.707031 -8.601562 7.226562 -8.488281 7.78125 -8.375 C 8.394531 -8.257812 9.015625 -8.125 9.640625 -7.96875 C 10.273438 -7.8125 10.859375 -7.585938 11.390625 -7.296875 C 11.929688 -7.015625 12.363281 -6.625 12.6875 -6.125 C 13.019531 -5.625 13.1875 -4.976562 13.1875 -4.1875 C 13.1875 -2.84375 12.679688 -1.765625 11.671875 -0.953125 C 10.671875 -0.140625 9.273438 0.265625 7.484375 0.265625 Z M 7.484375 0.265625 "/></g></g></g><g fill="#ffde59" fill-opacity="1"><g transform="translate(236.492836, 290.999513)"><g><path d="M 5.5 0.265625 C 4.195312 0.265625 3.113281 -0.0820312 2.25 -0.78125 C 1.394531 -1.476562 0.96875 -2.484375 0.96875 -3.796875 C 0.96875 -4.535156 1.109375 -5.160156 1.390625 -5.671875 C 1.679688 -6.191406 2.0625 -6.617188 2.53125 -6.953125 C 2.976562 -7.265625 3.484375 -7.507812 4.046875 -7.6875 C 4.617188 -7.863281 5.191406 -8.007812 5.765625 -8.125 L 9.875 -8.890625 C 9.84375 -9.742188 9.625 -10.394531 9.21875 -10.84375 C 8.800781 -11.28125 8.1875 -11.5 7.375 -11.5 C 6.75 -11.5 6.191406 -11.3125 5.703125 -10.9375 C 5.222656 -10.570312 4.914062 -10.0625 4.78125 -9.40625 L 1.484375 -9.40625 C 1.640625 -10.488281 2.015625 -11.375 2.609375 -12.0625 C 3.203125 -12.757812 3.921875 -13.273438 4.765625 -13.609375 C 5.609375 -13.953125 6.484375 -14.125 7.390625 -14.125 C 8.191406 -14.125 8.960938 -14.003906 9.703125 -13.765625 C 10.441406 -13.535156 11.066406 -13.1875 11.578125 -12.71875 C 12.117188 -12.238281 12.503906 -11.691406 12.734375 -11.078125 C 12.960938 -10.460938 13.097656 -9.820312 13.140625 -9.15625 C 13.179688 -8.488281 13.203125 -7.832031 13.203125 -7.1875 L 13.203125 0 L 9.875 0 L 9.875 -1.875 C 9.53125 -1.269531 9.113281 -0.8125 8.625 -0.5 C 8.195312 -0.21875 7.710938 -0.0195312 7.171875 0.09375 C 6.640625 0.207031 6.082031 0.265625 5.5 0.265625 Z M 6.3125 -2.34375 C 6.96875 -2.34375 7.554688 -2.472656 8.078125 -2.734375 C 8.804688 -3.097656 9.296875 -3.582031 9.546875 -4.1875 C 9.804688 -4.789062 9.941406 -5.546875 9.953125 -6.453125 L 6.65625 -5.796875 C 6.175781 -5.710938 5.785156 -5.601562 5.484375 -5.46875 C 5.179688 -5.332031 4.929688 -5.175781 4.734375 -5 C 4.597656 -4.875 4.488281 -4.71875 4.40625 -4.53125 C 4.320312 -4.351562 4.28125 -4.148438 4.28125 -3.921875 C 4.28125 -3.410156 4.472656 -3.019531 4.859375 -2.75 C 5.253906 -2.476562 5.738281 -2.34375 6.3125 -2.34375 Z M 6.3125 -2.34375 "/></g></g></g><g fill="#ffde59" fill-opacity="1"><g transform="translate(251.050865, 290.999513)"><g><path d="M 4.828125 0 L 1.5 0 L 1.5 -13.828125 L 4.828125 -13.828125 L 4.828125 -12.078125 C 5.390625 -12.847656 5.972656 -13.378906 6.578125 -13.671875 C 7.179688 -13.972656 7.851562 -14.125 8.59375 -14.125 C 9.863281 -14.125 10.820312 -13.894531 11.46875 -13.4375 C 12.113281 -12.988281 12.59375 -12.441406 12.90625 -11.796875 C 13.1875 -11.191406 13.351562 -10.570312 13.40625 -9.9375 C 13.457031 -9.3125 13.484375 -8.648438 13.484375 -7.953125 L 13.484375 0 L 10.171875 0 L 10.171875 -8.015625 C 10.171875 -8.710938 10.113281 -9.28125 10 -9.71875 C 9.882812 -10.15625 9.710938 -10.503906 9.484375 -10.765625 C 9.085938 -11.179688 8.503906 -11.390625 7.734375 -11.390625 C 6.796875 -11.390625 6.097656 -11.109375 5.640625 -10.546875 C 5.359375 -10.210938 5.148438 -9.773438 5.015625 -9.234375 C 4.890625 -8.691406 4.828125 -7.960938 4.828125 -7.046875 Z M 4.828125 0 "/></g></g></g></svg>